<svg xmlns="http://www.w3.org/2000/svg" width="430.185" height="222.245" viewBox="0 0 430.185 222.245">
  <g id="devfest_logo" transform="translate(-577.723 -139.469)">
    <g id="GDG_logo" data-name="GDG logo" transform="translate(652.887 142)">
      <path id="Subtraction_1" data-name="Subtraction 1" d="M26.645,32.472h0L10.558,23.184A10.715,10.715,0,0,0,0,23.088L37.5,1.439A10.725,10.725,0,1,1,48.222,20.015L26.645,32.472Z" transform="translate(5.531)" fill="rgba(255,255,255,0)" stroke="#fff" stroke-width="5"/>
      <path id="Subtraction_2" data-name="Subtraction 2" d="M10.737,32.472A10.786,10.786,0,0,1,5.443,31.08,10.711,10.711,0,0,1,.027,21,10.756,10.756,0,0,1,2.17,15.274a10.656,10.656,0,0,1,3.194-2.817L26.94,0,43.028,9.288a10.766,10.766,0,0,0,2.627,1.085,10.665,10.665,0,0,0,2.725.354,10.794,10.794,0,0,0,5.2-1.34L16.089,31.033a10.673,10.673,0,0,1-5.352,1.439Z" transform="translate(75.11 32.472)" fill="none" stroke="#fff" stroke-width="5"/>
      <g id="Group" transform="translate(0 21.745)">
        <path id="Path" d="M49.147,43.335A10.726,10.726,0,0,0,54.519,23.32L16.856,1.575A10.725,10.725,0,0,0,6.131,20.151L43.794,41.9a10.673,10.673,0,0,0,5.352,1.439" transform="translate(-0.766 -0.136)" fill="none" stroke="#fff" stroke-width="5"/>
      </g>
      <g id="Group-2" data-name="Group" transform="translate(75.11 0)">
        <path id="Path-2" data-name="Path" d="M49.148,43.327a10.726,10.726,0,0,0,5.372-20.015L16.857,1.567A10.725,10.725,0,0,0,6.132,20.143L43.8,41.888a10.681,10.681,0,0,0,5.352,1.439" transform="translate(-0.768 -0.128)" fill="none" stroke="#fff" stroke-width="5"/>
      </g>
    </g>
    <path id="Path_8" data-name="Path 8" d="M6.785-29.44A33.055,33.055,0,0,1,8.97-41.8,27.453,27.453,0,0,1,14.835-51a24.717,24.717,0,0,1,8.625-5.692A28.2,28.2,0,0,1,33.925-58.65a24,24,0,0,1,10.983,2.587,17.672,17.672,0,0,1,7.877,7.993h1.38V-80.5h8.97V0h-8.97V-8.74h-1.38a16.646,16.646,0,0,1-3.507,4.6,20.751,20.751,0,0,1-4.6,3.22,22.45,22.45,0,0,1-5.233,1.9,23.681,23.681,0,0,1-5.29.632A28.828,28.828,0,0,1,23.46-.345,25.719,25.719,0,0,1,14.778-5.98a25.723,25.723,0,0,1-5.865-9.143A34.193,34.193,0,0,1,6.785-27.6ZM17.48-18.975a18.306,18.306,0,0,0,3.968,6.5,17.693,17.693,0,0,0,6.037,4.14A19.544,19.544,0,0,0,35.075-6.9,18.6,18.6,0,0,0,42.55-8.395a18.01,18.01,0,0,0,6.038-4.255,20.261,20.261,0,0,0,4.083-6.613,23.506,23.506,0,0,0,1.495-8.567v-1.38a23.174,23.174,0,0,0-1.495-8.452,20.261,20.261,0,0,0-4.083-6.612,18.562,18.562,0,0,0-6.1-4.313,18.124,18.124,0,0,0-7.417-1.552,19.008,19.008,0,0,0-7.533,1.495,17.861,17.861,0,0,0-6.095,4.255,19.627,19.627,0,0,0-4.025,6.555,23.529,23.529,0,0,0-1.438,8.395v1.84A23.385,23.385,0,0,0,17.48-18.975ZM69.92-27.83v-2.76a29.049,29.049,0,0,1,2.128-11.155,26.479,26.479,0,0,1,5.923-8.912,27.726,27.726,0,0,1,8.912-5.865,28.621,28.621,0,0,1,11.1-2.127,26.588,26.588,0,0,1,12.132,2.587,27.028,27.028,0,0,1,8.4,6.382,25.225,25.225,0,0,1,4.83,8.28,25.461,25.461,0,0,1,1.553,8.28v7.36h-46q.345,8.51,5.29,13.685T97.98-6.9a23.944,23.944,0,0,0,7.015-.92,16.38,16.38,0,0,0,5.118-2.53,13.839,13.839,0,0,0,3.45-3.738,21.375,21.375,0,0,0,2.127-4.542l8.51,2.3a25.183,25.183,0,0,1-8.912,12.937q-6.5,5-17.537,5A28.925,28.925,0,0,1,86.537-.517a25.216,25.216,0,0,1-8.8-6.037,28.059,28.059,0,0,1-5.75-9.315A33.193,33.193,0,0,1,69.92-27.83Zm9.2-6.21h36.8a16.544,16.544,0,0,0-1.783-6.67,16.329,16.329,0,0,0-4.025-5.06,18.6,18.6,0,0,0-5.635-3.22,18.873,18.873,0,0,0-6.5-1.15,20.3,20.3,0,0,0-7.072,1.208,17.968,17.968,0,0,0-5.75,3.392,18.03,18.03,0,0,0-4.025,5.118A18.846,18.846,0,0,0,79.12-34.04Zm62.445-23,17.48,52.9h1.38l17.48-52.9h10.58L168.59,0H150.88L130.985-57.04Zm72.45,0V-71.53a8.833,8.833,0,0,1,2.473-6.44,8.533,8.533,0,0,1,6.383-2.53h22.54v8.28H226.09q-3.105,0-3.105,3.45v11.73H246.79v8.28H222.985V0h-8.97V-48.76H196.42v-8.28Zm42.9,29.21v-2.76a29.049,29.049,0,0,1,2.128-11.155,26.479,26.479,0,0,1,5.922-8.912,27.726,27.726,0,0,1,8.913-5.865,28.621,28.621,0,0,1,11.1-2.127A26.588,26.588,0,0,1,297.1-56.062a27.027,27.027,0,0,1,8.4,6.382,25.226,25.226,0,0,1,4.83,8.28,25.461,25.461,0,0,1,1.553,8.28v7.36h-46q.345,8.51,5.29,13.685T284.97-6.9a23.944,23.944,0,0,0,7.015-.92,16.38,16.38,0,0,0,5.117-2.53,13.839,13.839,0,0,0,3.45-3.738,21.373,21.373,0,0,0,2.128-4.542l8.51,2.3a25.184,25.184,0,0,1-8.913,12.937q-6.5,5-17.538,5A28.925,28.925,0,0,1,273.527-.517a25.217,25.217,0,0,1-8.8-6.037,28.059,28.059,0,0,1-5.75-9.315A33.194,33.194,0,0,1,256.91-27.83Zm9.2-6.21h36.8a16.544,16.544,0,0,0-1.783-6.67,16.329,16.329,0,0,0-4.025-5.06,18.6,18.6,0,0,0-5.635-3.22,18.873,18.873,0,0,0-6.5-1.15,20.3,20.3,0,0,0-7.073,1.208,17.968,17.968,0,0,0-5.75,3.392,18.03,18.03,0,0,0-4.025,5.118A18.846,18.846,0,0,0,266.11-34.04Zm64.17,12.88a15.245,15.245,0,0,0,5.06,10.523Q339.825-6.67,347.3-6.67q6.325,0,10.177-2.473A7.821,7.821,0,0,0,361.33-16.1q0-4.83-3.795-6.9T345.23-25.645q-9.89-.69-15.18-4.6T324.76-41.63v-.69a14.111,14.111,0,0,1,1.725-7.073,15.629,15.629,0,0,1,4.658-5.118,21.42,21.42,0,0,1,6.613-3.1,28.326,28.326,0,0,1,7.7-1.035,28.8,28.8,0,0,1,9.89,1.552,22.793,22.793,0,0,1,7.13,4.025,17.487,17.487,0,0,1,4.428,5.692,21.946,21.946,0,0,1,2.012,6.44l-8.51,2.07a12.185,12.185,0,0,0-4.428-8.625q-3.852-3.1-10.062-3.1a20.65,20.65,0,0,0-4.658.517,13.6,13.6,0,0,0-3.967,1.553,8.528,8.528,0,0,0-2.76,2.587A6.377,6.377,0,0,0,333.5-42.32a7.015,7.015,0,0,0,3.508,6.325q3.507,2.185,12.822,2.875,10.005.805,15.238,4.772T370.3-16.79v.69a16.125,16.125,0,0,1-1.667,7.418,16.555,16.555,0,0,1-4.6,5.577A20.675,20.675,0,0,1,356.9.4,32.965,32.965,0,0,1,347.76,1.61,32.759,32.759,0,0,1,336.318-.172a23.7,23.7,0,0,1-7.935-4.715,19.642,19.642,0,0,1-4.773-6.67,22.362,22.362,0,0,1-1.84-7.533Zm51.75-35.88h17.94V-80.5h8.97v23.46h22.08v8.28H408.94v37.03q0,3.45,3.105,3.45H428.26V0H408.825a8.533,8.533,0,0,1-6.383-2.53,8.833,8.833,0,0,1-2.473-6.44V-48.76H382.03ZM3.723,22.3h8.568l10.3,33.864H23.2V22.3h4.284V58H18.921L8.619,24.136H8.007V58H3.723Zm30.4,23.358v-.612a13.846,13.846,0,0,1,1.046-5.534,12.4,12.4,0,0,1,2.8-4.105,11.877,11.877,0,0,1,4.055-2.55,13.687,13.687,0,0,1,9.588,0,11.877,11.877,0,0,1,4.055,2.55,12.4,12.4,0,0,1,2.805,4.105,13.846,13.846,0,0,1,1.045,5.534v.612a13.985,13.985,0,0,1-1.045,5.584,12.307,12.307,0,0,1-2.779,4.08,11.748,11.748,0,0,1-4.055,2.525,13.9,13.9,0,0,1-9.665,0,11.8,11.8,0,0,1-4.029-2.525,12.307,12.307,0,0,1-2.779-4.08A13.984,13.984,0,0,1,34.119,45.658Zm4.08,0a10.574,10.574,0,0,0,.663,3.85A8.765,8.765,0,0,0,40.7,52.441,7.88,7.88,0,0,0,43.426,54.3a9.34,9.34,0,0,0,6.783,0,7.88,7.88,0,0,0,2.729-1.861,8.765,8.765,0,0,0,1.836-2.933,10.574,10.574,0,0,0,.663-3.85v-.612a10.277,10.277,0,0,0-.663-3.748,8.765,8.765,0,0,0-1.836-2.933,8.442,8.442,0,0,0-2.754-1.912,8.572,8.572,0,0,0-6.732,0A8.442,8.442,0,0,0,40.7,38.365,8.765,8.765,0,0,0,38.862,41.3a10.277,10.277,0,0,0-.663,3.748Zm32.436,8.67V36.376h-5.2V32.7h9.18V36.07h.612a6.548,6.548,0,0,1,2.754-3.086,8.24,8.24,0,0,1,4.08-.994,8.07,8.07,0,0,1,6.171,2.5q2.346,2.5,2.5,7.293l-4.182.612q0-3.519-1.683-5.075a5.861,5.861,0,0,0-4.131-1.556A5.721,5.721,0,0,0,78,36.376a5.508,5.508,0,0,0-1.912,1.683,7.3,7.3,0,0,0-1.122,2.5,12.585,12.585,0,0,0-.357,3.06v10.71h6.426V58H64.821V54.328ZM97.206,32.7h7.956V22.3h3.978V32.7h9.792v3.672H109.14V52.8q0,1.53,1.377,1.53h7.191V58h-8.619a3.784,3.784,0,0,1-2.831-1.122,3.917,3.917,0,0,1-1.1-2.856V36.376H97.206Zm36.057-10.4V37.294h.612a9.538,9.538,0,0,1,3.29-3.876,9.042,9.042,0,0,1,5.176-1.428,8.8,8.8,0,0,1,6.706,2.728q2.575,2.729,2.576,8.186V58h-3.978V43.72q0-3.978-1.785-5.967a6.183,6.183,0,0,0-4.845-1.989,7.01,7.01,0,0,0-5.686,2.474,9.973,9.973,0,0,0-2.066,6.6V58h-3.978V22.3ZM160.854,58V22.3h21.624v3.978h-17.34V38.11h17.034v3.978H165.138V54.022h17.646V58Zm28.815-12.24v-.816a15.333,15.333,0,0,1,.918-5.508,11.808,11.808,0,0,1,2.524-4.055,10.815,10.815,0,0,1,3.749-2.524,11.982,11.982,0,0,1,4.539-.867,9.736,9.736,0,0,1,4.717,1.147,8.055,8.055,0,0,1,3.34,3.545h.612V32.7h3.978V52.8q0,1.53,1.377,1.53H216.7V58H214a3.784,3.784,0,0,1-2.831-1.122,3.917,3.917,0,0,1-1.1-2.856v-.306h-.612a8.3,8.3,0,0,1-3.391,3.774,9.147,9.147,0,0,1-4.564,1.224,12.58,12.58,0,0,1-4.641-.841,10.52,10.52,0,0,1-3.749-2.5,11.808,11.808,0,0,1-2.524-4.055A15.49,15.49,0,0,1,189.669,45.76Zm4.08-.816v.816a9.5,9.5,0,0,0,2.27,6.757,7.7,7.7,0,0,0,5.89,2.422,8.067,8.067,0,0,0,3.29-.663,7.28,7.28,0,0,0,2.576-1.887,9.014,9.014,0,0,0,1.683-2.932,11.2,11.2,0,0,0,.612-3.8v-.612a11.044,11.044,0,0,0-.612-3.748,8.77,8.77,0,0,0-1.708-2.933,7.826,7.826,0,0,0-2.6-1.912,7.689,7.689,0,0,0-3.239-.688,7.889,7.889,0,0,0-3.264.663,7.755,7.755,0,0,0-2.576,1.861,8.486,8.486,0,0,0-1.708,2.907A11.044,11.044,0,0,0,193.749,44.944Zm33,3.672a6.761,6.761,0,0,0,2.244,4.667,7.713,7.713,0,0,0,5.3,1.759,8.252,8.252,0,0,0,4.514-1.1,3.468,3.468,0,0,0,1.708-3.085,3.208,3.208,0,0,0-1.683-3.06,14.049,14.049,0,0,0-5.457-1.173,12.734,12.734,0,0,1-6.732-2.04,5.889,5.889,0,0,1-2.346-5.049v-.306a6.258,6.258,0,0,1,.765-3.137,6.931,6.931,0,0,1,2.066-2.269,9.5,9.5,0,0,1,2.932-1.377,12.562,12.562,0,0,1,3.417-.459,12.773,12.773,0,0,1,4.386.689,10.108,10.108,0,0,1,3.162,1.785,7.755,7.755,0,0,1,1.964,2.524,9.733,9.733,0,0,1,.892,2.856l-3.774.918a5.4,5.4,0,0,0-1.964-3.825,6.892,6.892,0,0,0-4.463-1.377,9.158,9.158,0,0,0-2.066.229,6.033,6.033,0,0,0-1.759.689,3.782,3.782,0,0,0-1.224,1.147,2.828,2.828,0,0,0-.459,1.607,3.111,3.111,0,0,0,1.555,2.805q1.556.969,5.686,1.275a12.81,12.81,0,0,1,6.758,2.117,6.037,6.037,0,0,1,2.32,5.125v.306a7.151,7.151,0,0,1-.74,3.29,7.342,7.342,0,0,1-2.04,2.473,9.169,9.169,0,0,1-3.162,1.556,16.194,16.194,0,0,1-9.129-.255,10.512,10.512,0,0,1-3.519-2.091,8.711,8.711,0,0,1-2.117-2.958,9.917,9.917,0,0,1-.816-3.34ZM253.266,32.7h7.956V22.3H265.2V32.7h9.792v3.672H265.2V52.8q0,1.53,1.377,1.53h7.191V58h-8.619a3.784,3.784,0,0,1-2.83-1.122,3.917,3.917,0,0,1-1.1-2.856V36.376h-7.956Zm62.118,1.326a13.623,13.623,0,0,1,.816-4.692,11.858,11.858,0,0,1,2.4-3.978,11.358,11.358,0,0,1,3.927-2.754,13.45,13.45,0,0,1,5.406-1.02,14.162,14.162,0,0,1,5.406.943,11.319,11.319,0,0,1,3.825,2.5,10.011,10.011,0,0,1,2.269,3.519,11.275,11.275,0,0,1,.74,4v.918a10.14,10.14,0,0,1-2.55,6.961q-2.55,2.882-8.16,4.105a18.58,18.58,0,0,0-7.191,2.831,6.064,6.064,0,0,0-2.295,5.125v1.53h19.89V58H315.69V51.88a10.288,10.288,0,0,1,.816-4.259,8.9,8.9,0,0,1,2.321-3.111,12.952,12.952,0,0,1,3.646-2.167,31.459,31.459,0,0,1,4.845-1.479q4.539-1.02,6.553-2.907a6.11,6.11,0,0,0,2.014-4.641V33.01a8.209,8.209,0,0,0-.459-2.7,6.807,6.807,0,0,0-3.9-4.106,9.186,9.186,0,0,0-3.6-.637,7.8,7.8,0,0,0-6.094,2.4,9.143,9.143,0,0,0-2.168,6.375V36.58h-4.284Zm34.323-8.619q3.315-3.825,9.231-3.825t9.231,3.825q3.315,3.825,3.315,10.761v7.956q0,7.14-3.315,10.863t-9.231,3.723q-5.916,0-9.231-3.723t-3.315-10.863V36.172Q346.392,29.236,349.707,25.411Zm.969,11.067v7.344q0,5.253,2.066,8.135a8.1,8.1,0,0,0,12.393,0q2.066-2.882,2.066-8.135V36.478a18.183,18.183,0,0,0-.51-4.463,10.133,10.133,0,0,0-1.556-3.468,7.406,7.406,0,0,0-2.6-2.269,8.386,8.386,0,0,0-7.217,0,7.477,7.477,0,0,0-2.575,2.269,10.133,10.133,0,0,0-1.556,3.468A18.183,18.183,0,0,0,350.676,36.478Zm27.132-2.448a13.623,13.623,0,0,1,.816-4.692,11.858,11.858,0,0,1,2.4-3.978,11.358,11.358,0,0,1,3.927-2.754,13.45,13.45,0,0,1,5.406-1.02,14.162,14.162,0,0,1,5.406.943,11.319,11.319,0,0,1,3.825,2.5,10.011,10.011,0,0,1,2.269,3.519,11.275,11.275,0,0,1,.74,4v.918a10.14,10.14,0,0,1-2.55,6.961q-2.55,2.882-8.16,4.105a18.58,18.58,0,0,0-7.191,2.831,6.064,6.064,0,0,0-2.295,5.125v1.53h19.89V58H378.114V51.88a10.288,10.288,0,0,1,.816-4.259,8.9,8.9,0,0,1,2.321-3.111,12.952,12.952,0,0,1,3.646-2.167,31.459,31.459,0,0,1,4.845-1.479q4.539-1.02,6.553-2.907a6.11,6.11,0,0,0,2.014-4.641V33.01a8.209,8.209,0,0,0-.459-2.7,6.807,6.807,0,0,0-3.9-4.106,9.186,9.186,0,0,0-3.6-.637,7.8,7.8,0,0,0-6.094,2.4,9.143,9.143,0,0,0-2.168,6.375V36.58h-4.284Zm34.323-8.619q3.315-3.825,9.231-3.825t9.231,3.825q3.315,3.825,3.315,10.761v7.956q0,7.14-3.315,10.863t-9.231,3.723q-5.916,0-9.231-3.723t-3.315-10.863V36.172Q408.816,29.236,412.131,25.411Zm.969,11.067v7.344q0,5.253,2.066,8.135a8.1,8.1,0,0,0,12.393,0q2.066-2.882,2.066-8.135V36.478a18.183,18.183,0,0,0-.51-4.463,10.133,10.133,0,0,0-1.556-3.468,7.406,7.406,0,0,0-2.6-2.269,8.386,8.386,0,0,0-7.217,0,7.477,7.477,0,0,0-2.575,2.269,10.133,10.133,0,0,0-1.556,3.468A18.183,18.183,0,0,0,413.1,36.478Z" transform="translate(574 303)" fill="#fff"/>
    <path id="Path_7" data-name="Path 7" d="M46.421-20.069q0,9.15-5.429,14.579Q34.892.976,24.949.976a21.906,21.906,0,0,1-16.1-6.588A22.051,22.051,0,0,1,2.257-21.838,22.051,22.051,0,0,1,8.845-38.064a21.906,21.906,0,0,1,16.1-6.588,24.243,24.243,0,0,1,9.089,1.708,18.169,18.169,0,0,1,7.015,4.819L37.027-34.1a13.532,13.532,0,0,0-5.216-3.812,17.235,17.235,0,0,0-6.862-1.373,16.429,16.429,0,0,0-12.078,4.941,17.19,17.19,0,0,0-4.88,12.505,17.19,17.19,0,0,0,4.88,12.505A16.429,16.429,0,0,0,24.949-4.392a16.241,16.241,0,0,0,10.858-3.66,14.583,14.583,0,0,0,5-10.065H24.949v-5.246H46.116A18.737,18.737,0,0,1,46.421-20.069ZM53.253,0V-43.676H66.612q10,0,16.074,6.039t6.069,15.8q0,9.821-6.069,15.83T66.612,0Zm5.612-38.308v32.94h7.747q7.625,0,12.017-4.361t4.392-12.109q0-7.686-4.392-12.078T66.612-38.308Zm78.568,18.239q0,9.15-5.429,14.579Q125.9.976,115.961.976a21.906,21.906,0,0,1-16.1-6.588,22.051,22.051,0,0,1-6.588-16.226,22.051,22.051,0,0,1,6.588-16.226,21.906,21.906,0,0,1,16.1-6.588,24.243,24.243,0,0,1,9.089,1.708,18.169,18.169,0,0,1,7.015,4.819L128.039-34.1a13.532,13.532,0,0,0-5.215-3.812,17.235,17.235,0,0,0-6.863-1.373,16.429,16.429,0,0,0-12.078,4.941A17.19,17.19,0,0,0,99-21.838a17.19,17.19,0,0,0,4.88,12.505,16.429,16.429,0,0,0,12.078,4.941,16.241,16.241,0,0,0,10.858-3.66,14.583,14.583,0,0,0,5-10.065h-15.86v-5.246h21.167A18.736,18.736,0,0,1,137.433-20.069Z" transform="translate(811 191)" fill="#fff"/>
  </g>
</svg>
