<svg xmlns="http://www.w3.org/2000/svg" width="587.871" height="355.256" viewBox="0 0 587.871 355.256">
  <g id="devfest_main_logo" transform="translate(5019.122 2441.75)">
    <g id="Group_63" data-name="Group 63" transform="translate(6 1)">
      <rect id="Rectangle_30" data-name="Rectangle 30" width="564.461" height="332.65" transform="translate(-5005.514 -2424.076)" fill="none" stroke="#fbbc04" stroke-miterlimit="10" stroke-width="2"/>
      <rect id="Rectangle_31" data-name="Rectangle 31" width="564.461" height="332.65" transform="translate(-5025.122 -2442.75)" fill="#fff"/>
      <rect id="Rectangle_32" data-name="Rectangle 32" width="564.461" height="15.577" transform="translate(-5025.122 -2442.75)" fill="#fbbc04"/>
    </g>
    <g id="Group_62" data-name="Group 62" transform="translate(-5080 -2415.946)">
      <path id="Path_11" data-name="Path 11" d="M14.56.56A12.806,12.806,0,0,1,8.05-1.155,12.752,12.752,0,0,1,3.325-5.88a12.991,12.991,0,0,1-1.75-6.65,12.991,12.991,0,0,1,1.75-6.65A12.752,12.752,0,0,1,8.05-23.905a12.806,12.806,0,0,1,6.51-1.715,13.776,13.776,0,0,1,5.2.98,10.448,10.448,0,0,1,4.008,2.765l-2.1,2.135A8.014,8.014,0,0,0,18.585-22a10.1,10.1,0,0,0-3.99-.788A10.04,10.04,0,0,0,9.66-21.507a9.691,9.691,0,0,0-3.693,3.6A10.319,10.319,0,0,0,4.585-12.53,10.319,10.319,0,0,0,5.967-7.158,9.691,9.691,0,0,0,9.66-3.553,10.04,10.04,0,0,0,14.6-2.275a10.006,10.006,0,0,0,4.217-.788,9.45,9.45,0,0,0,2.923-2.082A7.651,7.651,0,0,0,23.2-7.507a10.422,10.422,0,0,0,.7-3.063H14.63v-2.765H26.67a10.4,10.4,0,0,1,.175,1.82,14.029,14.029,0,0,1-.735,4.5,9.933,9.933,0,0,1-2.345,3.832A11.942,11.942,0,0,1,14.56.56ZM31.255-25.06h7.56a13.629,13.629,0,0,1,6.72,1.593,10.96,10.96,0,0,1,4.41,4.427,13.421,13.421,0,0,1,1.54,6.51,13.421,13.421,0,0,1-1.54,6.51,10.96,10.96,0,0,1-4.41,4.428A13.629,13.629,0,0,1,38.815,0h-7.56Zm7.56,22.225A9.641,9.641,0,0,0,45.868-5.39a9.54,9.54,0,0,0,2.607-7.14,9.54,9.54,0,0,0-2.607-7.14,9.641,9.641,0,0,0-7.052-2.555H34.23v19.39ZM67.62.56a12.806,12.806,0,0,1-6.51-1.715A12.752,12.752,0,0,1,56.385-5.88a12.991,12.991,0,0,1-1.75-6.65,12.991,12.991,0,0,1,1.75-6.65,12.752,12.752,0,0,1,4.725-4.725,12.806,12.806,0,0,1,6.51-1.715,13.776,13.776,0,0,1,5.2.98,10.448,10.448,0,0,1,4.007,2.765l-2.1,2.135A8.014,8.014,0,0,0,71.645-22a10.1,10.1,0,0,0-3.99-.788,10.04,10.04,0,0,0-4.935,1.278,9.691,9.691,0,0,0-3.693,3.6,10.319,10.319,0,0,0-1.382,5.372,10.319,10.319,0,0,0,1.382,5.373A9.691,9.691,0,0,0,62.72-3.553a10.04,10.04,0,0,0,4.935,1.278,10.006,10.006,0,0,0,4.217-.788,9.45,9.45,0,0,0,2.923-2.082,7.651,7.651,0,0,0,1.47-2.362,10.422,10.422,0,0,0,.7-3.063H67.69v-2.765H79.73a10.4,10.4,0,0,1,.175,1.82,14.029,14.029,0,0,1-.735,4.5,9.933,9.933,0,0,1-2.345,3.832A11.942,11.942,0,0,1,67.62.56Z" transform="translate(345 70.946)" fill="#292929"/>
      <g id="GDG_Logo" data-name="GDG Logo" transform="translate(260 46.251)">
        <g id="Group_33" data-name="Group 33" transform="translate(0 0)">
          <g id="Group" transform="translate(2.828 0)">
            <path id="Path" d="M14.148,17.32l11.493-6.636A5.655,5.655,0,1,0,19.986.89L.126,12.356Z" transform="translate(-0.126 -0.131)" fill="#ea4335"/>
          </g>
          <g id="Group-2" data-name="Group" transform="translate(0 11.466)">
            <path id="Path-2" data-name="Path" d="M26.277,22.914A5.656,5.656,0,0,0,29.11,12.361L9.25.895A5.655,5.655,0,0,0,3.595,10.69l19.86,11.466a5.628,5.628,0,0,0,2.822.759" transform="translate(-0.766 -0.136)" fill="#4285f4"/>
          </g>
          <g id="Group-3" data-name="Group" transform="translate(39.604 16.952)">
            <path id="Path-3" data-name="Path" d="M6.967,17.292a5.628,5.628,0,0,0,2.822-.759L29.648,5.068,15.805,0,4.134,6.738A5.656,5.656,0,0,0,6.967,17.292" transform="translate(-1.305)" fill="#fbbc04"/>
          </g>
          <g id="Group-4" data-name="Group" transform="translate(39.604 0)">
            <path id="Path-4" data-name="Path" d="M26.278,22.907a5.656,5.656,0,0,0,2.833-10.554L9.252.887A5.655,5.655,0,0,0,3.6,10.682l19.86,11.466a5.632,5.632,0,0,0,2.822.759" transform="translate(-0.768 -0.128)" fill="#0f9d58"/>
          </g>
        </g>
      </g>
    </g>
    <path id="Path_9" data-name="Path 9" d="M6.313-27.392a30.755,30.755,0,0,1,2.033-11.5,25.544,25.544,0,0,1,5.457-8.56,23,23,0,0,1,8.025-5.3,26.241,26.241,0,0,1,9.737-1.819,22.33,22.33,0,0,1,10.219,2.407,16.443,16.443,0,0,1,7.329,7.437H50.4V-74.9h8.346V0H50.4V-8.132H49.113a15.487,15.487,0,0,1-3.264,4.28,19.308,19.308,0,0,1-4.28,3A20.888,20.888,0,0,1,36.7.91a22.034,22.034,0,0,1-4.922.588A26.823,26.823,0,0,1,21.828-.321,23.93,23.93,0,0,1,13.75-5.564a23.933,23.933,0,0,1-5.457-8.507A31.814,31.814,0,0,1,6.313-25.68Zm9.951,9.737a17.033,17.033,0,0,0,3.691,6.046,16.462,16.462,0,0,0,5.618,3.852A18.185,18.185,0,0,0,32.635-6.42,17.3,17.3,0,0,0,39.59-7.811a16.757,16.757,0,0,0,5.618-3.959,18.852,18.852,0,0,0,3.8-6.153A21.871,21.871,0,0,0,50.4-25.894v-1.284a21.562,21.562,0,0,0-1.391-7.864,18.852,18.852,0,0,0-3.8-6.153,17.271,17.271,0,0,0-5.671-4.013,16.863,16.863,0,0,0-6.9-1.444,17.686,17.686,0,0,0-7.009,1.391A16.619,16.619,0,0,0,19.955-41.3a18.262,18.262,0,0,0-3.745,6.1,21.893,21.893,0,0,0-1.338,7.811v1.712A21.759,21.759,0,0,0,16.264-17.655ZM65.27-25.894v-2.568a27.028,27.028,0,0,1,1.979-10.379,24.637,24.637,0,0,1,5.511-8.292,25.8,25.8,0,0,1,8.292-5.457A26.63,26.63,0,0,1,91.378-54.57a24.738,24.738,0,0,1,11.288,2.407,25.147,25.147,0,0,1,7.811,5.938,23.471,23.471,0,0,1,4.494,7.7,23.69,23.69,0,0,1,1.445,7.7v6.848h-42.8q.321,7.918,4.922,12.733T91.378-6.42A22.278,22.278,0,0,0,97.9-7.276a15.241,15.241,0,0,0,4.762-2.354,12.876,12.876,0,0,0,3.21-3.477,19.888,19.888,0,0,0,1.98-4.226l7.918,2.14a23.432,23.432,0,0,1-8.293,12.038Q101.436,1.5,91.164,1.5A26.913,26.913,0,0,1,80.731-.481,23.462,23.462,0,0,1,72.546-6.1a26.107,26.107,0,0,1-5.35-8.667A30.884,30.884,0,0,1,65.27-25.894Zm8.56-5.778h34.24a15.393,15.393,0,0,0-1.659-6.206,15.193,15.193,0,0,0-3.745-4.708,17.3,17.3,0,0,0-5.243-3,17.56,17.56,0,0,0-6.045-1.07A18.888,18.888,0,0,0,84.8-45.528a16.718,16.718,0,0,0-5.35,3.156A16.776,16.776,0,0,0,75.7-37.611,17.535,17.535,0,0,0,73.83-31.672Zm58.315-21.4,16.264,49.22h1.284l16.264-49.22H175.8L157.29,0H140.812L122.3-53.072Zm67.624,0V-66.554a8.218,8.218,0,0,1,2.3-5.992,7.939,7.939,0,0,1,5.939-2.354H228.98v7.7H211q-2.889,0-2.889,3.21v10.914h22.149v7.7H208.115V0h-8.346V-45.368H183.4v-7.7Zm40.125,27.178v-2.568a27.028,27.028,0,0,1,1.98-10.379,24.637,24.637,0,0,1,5.51-8.292,25.8,25.8,0,0,1,8.292-5.457A26.63,26.63,0,0,1,266-54.57a24.738,24.738,0,0,1,11.288,2.407,25.147,25.147,0,0,1,7.811,5.938,23.471,23.471,0,0,1,4.494,7.7,23.69,23.69,0,0,1,1.445,7.7v6.848h-42.8q.321,7.918,4.922,12.733T266-6.42a22.278,22.278,0,0,0,6.527-.856A15.241,15.241,0,0,0,277.29-9.63a12.876,12.876,0,0,0,3.21-3.477,19.889,19.889,0,0,0,1.98-4.226l7.918,2.14a23.432,23.432,0,0,1-8.293,12.038Q276.06,1.5,265.788,1.5A26.913,26.913,0,0,1,255.355-.481,23.462,23.462,0,0,1,247.17-6.1a26.107,26.107,0,0,1-5.35-8.667A30.884,30.884,0,0,1,239.894-25.894Zm8.56-5.778h34.24a15.393,15.393,0,0,0-1.659-6.206,15.193,15.193,0,0,0-3.745-4.708,17.3,17.3,0,0,0-5.243-3A17.56,17.56,0,0,0,266-46.652a18.888,18.888,0,0,0-6.581,1.124,16.718,16.718,0,0,0-5.35,3.156,16.776,16.776,0,0,0-3.745,4.762A17.535,17.535,0,0,0,248.454-31.672Zm59.92,11.984a14.184,14.184,0,0,0,4.708,9.79q4.173,3.692,11.128,3.692,5.885,0,9.469-2.3a7.277,7.277,0,0,0,3.585-6.474,6.731,6.731,0,0,0-3.531-6.42q-3.531-1.926-11.449-2.461-9.2-.642-14.124-4.28t-4.922-10.593v-.642a13.13,13.13,0,0,1,1.605-6.581,14.542,14.542,0,0,1,4.333-4.762,19.93,19.93,0,0,1,6.152-2.889,26.356,26.356,0,0,1,7.169-.963,26.8,26.8,0,0,1,9.2,1.444,21.208,21.208,0,0,1,6.634,3.745,16.271,16.271,0,0,1,4.12,5.3,20.42,20.42,0,0,1,1.872,5.992l-7.918,1.926a11.337,11.337,0,0,0-4.12-8.025,14.46,14.46,0,0,0-9.362-2.889,19.213,19.213,0,0,0-4.334.481,12.657,12.657,0,0,0-3.691,1.444,7.935,7.935,0,0,0-2.568,2.407,5.934,5.934,0,0,0-.963,3.371,6.527,6.527,0,0,0,3.264,5.885q3.263,2.033,11.93,2.675,9.309.749,14.178,4.44t4.868,10.753v.642a15,15,0,0,1-1.552,6.9,15.4,15.4,0,0,1-4.28,5.189A19.237,19.237,0,0,1,333.145.375,30.672,30.672,0,0,1,324.638,1.5,30.48,30.48,0,0,1,313.992-.161a22.055,22.055,0,0,1-7.383-4.387,18.275,18.275,0,0,1-4.441-6.206,20.806,20.806,0,0,1-1.712-7.008Zm48.364-33.384H373.43V-74.9h8.346v21.828H402.32v7.7H381.776v34.454q0,3.21,2.889,3.21h15.087V0H381.669a7.939,7.939,0,0,1-5.938-2.354,8.218,8.218,0,0,1-2.3-5.992V-45.368H356.738Z" transform="translate(-4944 -2237)" fill="#141adf"/>
    <path id="Path_10" data-name="Path 10" d="M3.869-37.1h8.9L23.479-1.908h.636V-37.1h4.452V0h-8.9L8.957-35.192H8.321V0H3.869ZM31.853-12.826v-.636a14.389,14.389,0,0,1,1.086-5.751,12.886,12.886,0,0,1,2.915-4.266,12.342,12.342,0,0,1,4.214-2.65,13.98,13.98,0,0,1,4.982-.9,13.98,13.98,0,0,1,4.982.9,12.342,12.342,0,0,1,4.213,2.65,12.886,12.886,0,0,1,2.915,4.266,14.389,14.389,0,0,1,1.087,5.751v.636a14.533,14.533,0,0,1-1.087,5.8,12.79,12.79,0,0,1-2.889,4.24A12.209,12.209,0,0,1,50.059-.159a14.2,14.2,0,0,1-5.008.9,14.127,14.127,0,0,1-5.035-.9,12.263,12.263,0,0,1-4.187-2.624,12.79,12.79,0,0,1-2.889-4.24A14.533,14.533,0,0,1,31.853-12.826Zm4.24,0a10.989,10.989,0,0,0,.689,4A9.108,9.108,0,0,0,38.69-5.777a8.189,8.189,0,0,0,2.835,1.934,9.205,9.205,0,0,0,3.525.663,9.205,9.205,0,0,0,3.524-.663A8.189,8.189,0,0,0,51.41-5.777a9.108,9.108,0,0,0,1.908-3.048,10.989,10.989,0,0,0,.689-4v-.636a10.68,10.68,0,0,0-.689-3.9A9.108,9.108,0,0,0,51.41-20.4a8.773,8.773,0,0,0-2.862-1.988,8.666,8.666,0,0,0-3.5-.715,8.666,8.666,0,0,0-3.5.715A8.773,8.773,0,0,0,38.69-20.4a9.108,9.108,0,0,0-1.908,3.047,10.68,10.68,0,0,0-.689,3.9Zm30.1,9.01V-22.472H60.791v-3.816h9.54v3.5h.636A6.8,6.8,0,0,1,73.829-26a8.564,8.564,0,0,1,4.24-1.033,8.386,8.386,0,0,1,6.413,2.6q2.438,2.6,2.6,7.579l-4.346.636q0-3.657-1.749-5.273a6.09,6.09,0,0,0-4.293-1.617,5.946,5.946,0,0,0-2.836.636,5.724,5.724,0,0,0-1.987,1.749,7.582,7.582,0,0,0-1.166,2.6,13.079,13.079,0,0,0-.371,3.18v11.13h6.678V0H60.155V-3.816ZM90.206-26.288h8.268V-37.1h4.134v10.812h10.176v3.816H102.608V-5.406q0,1.59,1.431,1.59h7.473V0h-8.957a3.932,3.932,0,0,1-2.941-1.166,4.071,4.071,0,0,1-1.14-2.968V-22.472H90.206ZM124.073-37.1v15.582h.636a9.912,9.912,0,0,1,3.419-4.028,9.4,9.4,0,0,1,5.38-1.484,9.147,9.147,0,0,1,6.969,2.835q2.676,2.835,2.676,8.507V0h-4.134V-14.84q0-4.134-1.855-6.2a6.425,6.425,0,0,0-5.035-2.067,7.285,7.285,0,0,0-5.909,2.571,10.364,10.364,0,0,0-2.146,6.863V0h-4.134V-37.1ZM149.142,0V-37.1h22.472v4.134h-18.02v12.3h17.7v4.134h-17.7v12.4h18.338V0Zm26.341-12.72v-.848a15.934,15.934,0,0,1,.954-5.724,12.271,12.271,0,0,1,2.623-4.214,11.239,11.239,0,0,1,3.9-2.623,12.452,12.452,0,0,1,4.717-.9,10.117,10.117,0,0,1,4.9,1.192,8.371,8.371,0,0,1,3.471,3.684h.636v-4.134h4.134V-5.406q0,1.59,1.431,1.59h1.325V0h-2.809a3.932,3.932,0,0,1-2.941-1.166,4.071,4.071,0,0,1-1.14-2.968v-.318h-.636A8.62,8.62,0,0,1,192.523-.53,9.506,9.506,0,0,1,187.779.742a13.074,13.074,0,0,1-4.823-.875,10.932,10.932,0,0,1-3.9-2.6,12.271,12.271,0,0,1-2.623-4.213A16.1,16.1,0,0,1,175.483-12.72Zm4.24-.848v.848A9.872,9.872,0,0,0,182.081-5.7,8.006,8.006,0,0,0,188.2-3.18a8.383,8.383,0,0,0,3.419-.689A7.566,7.566,0,0,0,194.3-5.83a9.368,9.368,0,0,0,1.749-3.048,11.643,11.643,0,0,0,.636-3.948v-.636a11.477,11.477,0,0,0-.636-3.9,9.114,9.114,0,0,0-1.775-3.047,8.133,8.133,0,0,0-2.7-1.988,7.991,7.991,0,0,0-3.366-.715,8.2,8.2,0,0,0-3.392.689,8.059,8.059,0,0,0-2.676,1.934,8.819,8.819,0,0,0-1.775,3.021A11.477,11.477,0,0,0,179.723-13.568ZM210.41-9.752A7.026,7.026,0,0,0,212.742-4.9a8.015,8.015,0,0,0,5.512,1.829,8.575,8.575,0,0,0,4.691-1.14A3.6,3.6,0,0,0,224.72-7.42a3.334,3.334,0,0,0-1.749-3.18,14.6,14.6,0,0,0-5.671-1.219,13.233,13.233,0,0,1-7-2.12,6.12,6.12,0,0,1-2.438-5.247V-19.5a6.5,6.5,0,0,1,.8-3.26,7.2,7.2,0,0,1,2.146-2.358,9.872,9.872,0,0,1,3.048-1.431,13.055,13.055,0,0,1,3.551-.477,13.274,13.274,0,0,1,4.558.715,10.5,10.5,0,0,1,3.286,1.855,8.059,8.059,0,0,1,2.041,2.623,10.114,10.114,0,0,1,.927,2.968l-3.922.954a5.616,5.616,0,0,0-2.04-3.975,7.163,7.163,0,0,0-4.637-1.431,9.517,9.517,0,0,0-2.146.239,6.269,6.269,0,0,0-1.829.715,3.93,3.93,0,0,0-1.272,1.192,2.939,2.939,0,0,0-.477,1.67,3.233,3.233,0,0,0,1.616,2.915q1.617,1.007,5.91,1.325a13.313,13.313,0,0,1,7.023,2.2,6.274,6.274,0,0,1,2.411,5.326v.318A7.432,7.432,0,0,1,228.086-4a7.63,7.63,0,0,1-2.12,2.57A9.529,9.529,0,0,1,222.68.186a15.193,15.193,0,0,1-4.214.557,15.1,15.1,0,0,1-5.273-.822,10.925,10.925,0,0,1-3.657-2.173,9.052,9.052,0,0,1-2.2-3.074,10.306,10.306,0,0,1-.848-3.471Zm23.956-16.536h8.268V-37.1h4.134v10.812h10.176v3.816H246.768V-5.406q0,1.59,1.431,1.59h7.473V0h-8.957a3.932,3.932,0,0,1-2.942-1.166,4.071,4.071,0,0,1-1.139-2.968V-22.472h-8.268Zm57.346,1.378a14.157,14.157,0,0,1,.848-4.876,12.323,12.323,0,0,1,2.491-4.134,11.8,11.8,0,0,1,4.081-2.862,13.977,13.977,0,0,1,5.618-1.06,14.718,14.718,0,0,1,5.618.98,11.762,11.762,0,0,1,3.975,2.6,10.4,10.4,0,0,1,2.358,3.657,11.717,11.717,0,0,1,.768,4.16v.954a10.538,10.538,0,0,1-2.65,7.234q-2.65,2.995-8.48,4.267a19.308,19.308,0,0,0-7.473,2.941,6.3,6.3,0,0,0-2.385,5.326v1.59h20.67V0H292.03V-6.36a10.691,10.691,0,0,1,.848-4.426,9.246,9.246,0,0,1,2.411-3.233,13.46,13.46,0,0,1,3.789-2.253,32.691,32.691,0,0,1,5.035-1.537q4.717-1.06,6.81-3.021a6.349,6.349,0,0,0,2.094-4.823v-.318a8.531,8.531,0,0,0-.477-2.809,7.187,7.187,0,0,0-1.484-2.491,7.182,7.182,0,0,0-2.57-1.775,9.547,9.547,0,0,0-3.737-.663,8.1,8.1,0,0,0-6.333,2.491,9.5,9.5,0,0,0-2.253,6.625v2.332h-4.452Zm32.065-8.957q3.445-3.975,9.593-3.975t9.593,3.975q3.445,3.975,3.445,11.183v8.268q0,7.42-3.445,11.289T333.37.742q-6.148,0-9.593-3.869t-3.445-11.289v-8.268Q320.332-29.892,323.777-33.867Zm1.007,11.5v7.632q0,5.459,2.147,8.454a7.4,7.4,0,0,0,6.439,2.994,7.4,7.4,0,0,0,6.44-2.994q2.146-2.994,2.146-8.454v-7.632a18.9,18.9,0,0,0-.53-4.638,10.53,10.53,0,0,0-1.616-3.6,7.7,7.7,0,0,0-2.7-2.358,7.927,7.927,0,0,0-3.737-.848,7.888,7.888,0,0,0-3.763.848,7.77,7.77,0,0,0-2.676,2.358,10.53,10.53,0,0,0-1.617,3.6A18.9,18.9,0,0,0,324.784-22.366Zm24.592-2.544a14.157,14.157,0,0,1,.848-4.876,12.323,12.323,0,0,1,2.491-4.134,11.8,11.8,0,0,1,4.081-2.862,13.977,13.977,0,0,1,5.618-1.06,14.718,14.718,0,0,1,5.618.98,11.762,11.762,0,0,1,3.975,2.6,10.4,10.4,0,0,1,2.358,3.657,11.717,11.717,0,0,1,.768,4.16v.954a10.538,10.538,0,0,1-2.65,7.234q-2.65,2.995-8.48,4.267a19.308,19.308,0,0,0-7.473,2.941,6.3,6.3,0,0,0-2.385,5.326v1.59h20.67V0H349.694V-6.36a10.691,10.691,0,0,1,.848-4.426,9.246,9.246,0,0,1,2.411-3.233,13.46,13.46,0,0,1,3.789-2.253,32.691,32.691,0,0,1,5.035-1.537q4.717-1.06,6.81-3.021a6.349,6.349,0,0,0,2.094-4.823v-.318a8.531,8.531,0,0,0-.477-2.809,7.187,7.187,0,0,0-1.484-2.491,7.182,7.182,0,0,0-2.57-1.775,9.547,9.547,0,0,0-3.737-.663,8.1,8.1,0,0,0-6.333,2.491,9.5,9.5,0,0,0-2.253,6.625v2.332h-4.452Zm32.065-8.957q3.445-3.975,9.593-3.975t9.593,3.975q3.445,3.975,3.445,11.183v8.268q0,7.42-3.445,11.289T391.034.742q-6.148,0-9.593-3.869T378-14.416v-8.268Q378-29.892,381.441-33.867Zm1.007,11.5v7.632q0,5.459,2.147,8.454a7.4,7.4,0,0,0,6.439,2.994,7.4,7.4,0,0,0,6.44-2.994q2.146-2.994,2.146-8.454v-7.632A18.9,18.9,0,0,0,399.09-27a10.53,10.53,0,0,0-1.616-3.6,7.7,7.7,0,0,0-2.7-2.358,7.927,7.927,0,0,0-3.737-.848,7.888,7.888,0,0,0-3.763.848,7.77,7.77,0,0,0-2.676,2.358,10.53,10.53,0,0,0-1.617,3.6A18.9,18.9,0,0,0,382.448-22.366Z" transform="translate(-4940 -2169)" fill="#141adf"/>
    <path id="Path_104" data-name="Path 104" d="M1013.481,79.929a4.215,4.215,0,1,1-4.214-4.215,4.215,4.215,0,0,1,4.214,4.215" transform="translate(-6018.912 -2513.244)" fill="#ea4335"/>
    <rect id="Rectangle_263" data-name="Rectangle 263" width="8.352" height="8.352" transform="translate(-5003.603 -2094.846)" fill="#fbbc04"/>
    <rect id="Rectangle_264" data-name="Rectangle 264" width="8.352" height="8.352" transform="translate(-4439.603 -2094.846)" fill="#fbbc04"/>
    <rect id="Rectangle_265" data-name="Rectangle 265" width="8.352" height="8.352" transform="translate(-4439.603 -2427.846)" fill="#fbbc04"/>
  </g>
</svg>
