<svg xmlns="http://www.w3.org/2000/svg" width="144.161" height="69.751" viewBox="0 0 144.161 69.751">
  <g id="gdg_logo_color" transform="translate(1302 -504.094)">
    <g id="Group" transform="translate(-1296.239 504.094)">
      <path id="Path" d="M28.686,35.143,52.1,21.627A11.519,11.519,0,1,0,40.578,1.676L.126,25.031Z" transform="translate(-0.126 -0.131)" fill="#ea4335"/>
    </g>
    <g id="Group-2" data-name="Group" transform="translate(-1302 527.448)">
      <path id="Path-2" data-name="Path" d="M52.728,46.532a11.52,11.52,0,0,0,5.77-21.5L18.046,1.682A11.519,11.519,0,0,0,6.528,21.633L46.979,44.987a11.463,11.463,0,0,0,5.748,1.545" transform="translate(-0.766 -0.136)" fill="#4285f4"/>
    </g>
    <g id="Group-3" data-name="Group" transform="translate(-1221.331 538.623)">
      <path id="Path-3" data-name="Path" d="M12.837,35.221a11.463,11.463,0,0,0,5.748-1.545L59.036,10.322,30.839,0,7.067,13.725a11.52,11.52,0,0,0,5.77,21.5" transform="translate(-1.305)" fill="#fbbc04"/>
    </g>
    <g id="Group-4" data-name="Group" transform="translate(-1221.331 504.094)">
      <path id="Path-4" data-name="Path" d="M52.729,46.525a11.52,11.52,0,0,0,5.77-21.5L18.048,1.673A11.519,11.519,0,1,0,6.529,21.624L46.981,44.979a11.472,11.472,0,0,0,5.748,1.545" transform="translate(-0.768 -0.128)" fill="#0f9d58"/>
    </g>
  </g>
</svg>
