<svg xmlns="http://www.w3.org/2000/svg" width="149.658" height="74.992" viewBox="0 0 149.658 74.992">
  <g id="gdg_logo_white" transform="translate(38.964 860.455)">
    <g id="Group_5" data-name="Group 5" transform="translate(-36.431 -857.923)">
      <path id="Subtraction_1" data-name="Subtraction 1" d="M28.7,34.98h0L11.373,24.974A11.542,11.542,0,0,0,0,24.871L40.392,1.55A11.553,11.553,0,1,1,51.946,21.56L28.7,34.98Z" transform="translate(5.958)" fill="rgba(255,255,255,0)" stroke="#fff" stroke-width="5"/>
      <path id="Subtraction_2" data-name="Subtraction 2" d="M11.566,34.979a11.619,11.619,0,0,1-5.7-1.5A11.538,11.538,0,0,1,.029,22.62a11.587,11.587,0,0,1,2.309-6.167,11.479,11.479,0,0,1,3.441-3.035L29.021,0l17.33,10.005a11.6,11.6,0,0,0,2.83,1.169,11.489,11.489,0,0,0,2.936.381,11.627,11.627,0,0,0,5.6-1.444L17.332,33.43a11.5,11.5,0,0,1-5.766,1.55Z" transform="translate(80.91 34.98)" fill="none" stroke="#fff" stroke-width="5"/>
      <g id="Group" transform="translate(0 23.424)">
        <path id="Path" d="M52.883,46.671a11.555,11.555,0,0,0,5.788-21.56L18.1,1.686A11.553,11.553,0,0,0,6.545,21.7L47.117,45.121a11.5,11.5,0,0,0,5.766,1.55" transform="translate(-0.766 -0.136)" fill="none" stroke="#fff" stroke-width="5"/>
      </g>
      <g id="Group-2" data-name="Group" transform="translate(80.91 0)">
        <path id="Path-2" data-name="Path" d="M52.884,46.663A11.555,11.555,0,0,0,58.672,25.1L18.1,1.678A11.553,11.553,0,0,0,6.546,21.688L47.119,45.113a11.506,11.506,0,0,0,5.766,1.55" transform="translate(-0.768 -0.128)" fill="none" stroke="#fff" stroke-width="5"/>
      </g>
    </g>
  </g>
</svg>
